<?xml version="1.0" encoding="utf-8"?>
<!-- Svg Vector Icons : http://www.onlinewebfonts.com/icon -->
<!DOCTYPE svg PUBLIC "-//W3C//DTD SVG 1.1//EN" "http://www.w3.org/Graphics/SVG/1.1/DTD/svg11.dtd">
<svg version="1.1" xmlns="http://www.w3.org/2000/svg" xmlns:xlink="http://www.w3.org/1999/xlink" x="0px" y="0px" viewBox="0 0 256 256" enable-background="new 0 0 256 256" xml:space="preserve">
<metadata> Svg Vector Icons : http://www.onlinewebfonts.com/icon </metadata>
<g><g><path fill="#000000" d="M168.7,105.8l-0.3,0.2c0,0-1.3,1-2,1.5l-3,2.4l3.9,0.6c0.2,0,0.6,0.1,1.1,0.1c6.6,0.6,10.5,1.7,11.6,3.4c1.9,3,1.8,6.3-0.4,9.1c-2.4,3.2-5.5,5.9-9.1,8.9c-1.5,1.3-3.3,2.3-5.2,3.5c-0.9,0.6-1.9,1.1-2.8,1.8l-5.5,3.5l6.5-0.4c8.6-0.5,20.4-6.9,25.3-13.6c3-4.1,3.9-9.2,2.2-13.6c-1.6-4.2-5.2-7.1-9.8-8.2l-0.2,0c-1.5-0.2-3-0.3-4.5-0.3c-4.5,0-7.5,0.8-7.6,0.8L168.7,105.8z"/><path fill="#000000" d="M121.5,103.6c1.5,1.4,3.1,2.9,4.6,4.4l1.1,1.1l1.4-1.1c0.2-0.2,0.4-0.3,0.7-0.5l1.3-1l-0.9-1.3c-0.9-1.4-1.9-2.8-2.8-4.2c-2-3.1-4.2-6.3-6.2-9.4c-5.8-8.9-5.2-16.3,1.9-23.9c2.4-2.6,5.2-4.9,7.9-7.2c1-0.8,2-1.7,2.9-2.5c7.6-6.6,15-14.3,17.5-25.2c1.7-7.3,0.2-13.4-4.3-18.2l-4.3-4.6l1.4,6.1c2.2,9.6-0.5,17.9-8.1,25.4c-1.5,1.5-3.2,3-4.9,4.4c-1.2,1-2.4,2-3.6,3.1c-1.6,1.5-3.3,3-5,4.5c-4.8,4.3-9.8,8.8-14.4,13.6c-3.8,3.9-4.5,9.3-2.1,15.6C108.7,91.5,115.2,97.7,121.5,103.6z"/><path fill="#000000" d="M101.7,124.2h0.1c0.2,0,0.4,0,0.6,0l-1.7,0.8c-2.2,1.1-6.7,4.9-6.3,9c0.3,3,3,5.2,8.1,6.5c4.5,1.2,10.1,1.7,16.6,1.7l0,0c18.4,0,38.8-4.7,39-4.7l1.3-0.3v-1.3c0-0.6,0-1.1-4.4-6.7l-0.7-0.9l-1.1,0.3c-0.2,0-16.6,4-39.5,4c-1.7,0-3.4,0-5-0.1c-3-0.1-5.1-0.8-5.8-1.9c-0.8-1.3,0.1-3.2,0.1-3.2l1.6-3.1c0.3,0,0.6,0,0.9,0c27.8,0,57.8-8.5,58.1-8.5l-0.6-3.3c-0.2,0-12.9,1-25.9,2c1.1-1.1,2.2-2.1,3.2-3.1c2.4-2.3,4.7-4.5,6.5-7c3.6-5.1,3.5-10.6-0.2-15.7c-1.4-1.9-2.7-3.9-4.4-6.6c-3.3-5.2-3.1-8.3,0.6-12.6c2.3-2.7,5.2-5.4,8.9-8.1c3.1-2.3,6.3-4.4,9.8-6.7c1.6-1,3.2-2.1,4.9-3.2l5.9-3.9l-7.1,0.8c-0.5,0-0.9,0.1-1.2,0.1c-0.7,0-1.2,0.1-1.8,0.3c-2,0.9-4,1.8-6,2.6c-5.2,2.3-10.6,4.6-15.7,7.4c-3.8,2.1-7.5,5.6-10.3,9.7c-5.7,8.1-4.7,17,3,27c5.3,6.9,5.3,8,1,15.1c-0.4,0.6-0.3,1.2-0.2,1.8c0,0.3,0.1,0.7,0.2,1.3l0.1,1.1c-11.6,0.8-22.7,1.6-24.8,1.6h-0.1c-7.9-0.2-10.2-1.1-10.9-1.5c0.4-0.4,1.5-1.5,4.7-3c2.5-1.2,4.8-2,4.9-2.1l1.3-0.5l-0.3-2.9h-1.6c-0.5,0-6.5,1.5-11.2,3.2c-10.3,3.5-11.8,6-11.9,7.9C84.1,121,89.1,123,101.7,124.2z"/><path fill="#000000" d="M113.9,179.7c-15.3,0-23.2-2.1-23.3-2.1l-0.8-0.2c2.4,0.1,4.9,0.1,7.6,0.1l0,0c15.6,0,36.8-1.4,63.2-4.1h0c14.7-2,21.2-6.9,22.3-10.9c0.5-1.7,0-3.3-1.3-4.4l-2.7-2.3l-0.1,3.4c-0.5,0.9-5,3.3-18.3,5.9c-9.2,1.8-20.3,3.2-27,3.4c-2.4,0.1-5,0.1-7.7,0.1c-9.1,0-18.4-0.5-27.4-1c-2.1-0.1-4.3-0.2-6.4-0.3h0c-7.5-0.3-8.3-1.7-8.3-1.7c0-0.2,0.4-1.2,2.7-3c1.9-1.4,4.3-2.6,5.8-3.2l5.9-2.3l-6.3-1c-1.1-0.2-2.3-0.3-3.7-0.3c-6.2,0-17.7,1.8-22.3,6.8c-1.4,1.5-2,3.1-2,4.8c0,0,0,0.2,0,0.2c0,0.8-0.1,2.6,1.6,4.3c2.6,2.7,9,4.4,19.3,5.1l4,3.4c0.4,0.3,9.3,7.7,30.3,7.7c6.5,0,13.6-0.7,21-2.2c12.7-2.5,36.5-9.3,50.2-15.3l-1.2-3.2C154.7,177.6,129.2,179.7,113.9,179.7z"/><path fill="#000000" d="M139,147.9c-5.4,1.1-10.5,1.7-15.1,1.7c-11.9,0-18-3.7-19.6-4.8l-1.1-0.8l-7.8,6.8l1.4,1.3c0.3,0.3,8.7,7.8,28.3,7.8c9.2,0,19.4-1.6,30.3-4.9l6.1-1.8l-22.1-5.3L139,147.9z"/><path fill="#000000" d="M175.2,211.6c0.5-6-1.2-8.1-7.4-7.8c-3.1,0.1-6.2,0.9-9.6,1.4c-0.3-1.3-0.7-2.7-1-4.3c6-2.2,11.9-3.7,18.1-2.2c4.4,1,7.2,3.7,7.3,8.2c0.3,8.7,0.1,17.5,0.1,26.6c-2.4-0.4-5.7,2-6.2-2.1c-3.7,0.9-7.3,2.5-11.1,2.7c-5.3,0.4-8.7-2.4-9.7-6.9c-1.1-5.1,0.9-10.4,5.6-12.1C165.6,213.4,170.3,212.7,175.2,211.6z M175.4,217.1c-3.3,0.5-6.2,0.7-9,1.4c-2.8,0.7-4.3,3.8-3.4,6.5c0.9,2.9,3.4,4.2,6.4,3.5c5.1-1.3,6.1-2.5,6-7.9C175.4,219.7,175.4,218.8,175.4,217.1z M118.1,233.4c-1.8,0-3.4,0-5.3,0c-0.3-0.8-0.6-1.7-1-2.7c-0.4,0-0.7,0-0.9,0.1c-3.1,2.3-6.5,3.6-10.4,3.4c-4.9-0.2-8-2.3-9.3-6.4c-1.4-4.7,0.1-9.9,4.3-12c3.2-1.6,7-2.2,10.6-3.1c1.4-0.4,3-0.3,4.5-0.4c0.8-6.4-1.1-8.6-7.1-8.5c-1.6,0-3.3,0.3-4.9,0.6c-1.6,0.3-3.1,0.7-4.7,1.1c-1.7-4.5-1.8-4.9,2.4-5.8c4.3-0.9,8.9-1.4,13.2-1.1c5.4,0.4,8.1,3,8.4,8.4c0.5,7.9,0.3,15.8,0.3,23.7C118.4,231.5,118.2,232.4,118.1,233.4z M110.7,217.1c-3.1,0.4-6,0.6-8.8,1.3c-2.8,0.7-4.1,3.6-3.3,6.5c0.7,2.6,3,4.2,5.8,3.5C111.2,226.8,111.7,225.6,110.7,217.1z M122.3,199.1c0.4-0.2,0.5-0.3,0.6-0.3c7.5-0.2,7.4-0.2,9.5,7c1.8,6.2,3.8,12.5,5.7,18.7c0.3,0,0.6,0.1,0.9,0.1c2.1-8.5,4.2-17.1,6.3-25.7c2.1,0,4.5,0,7.6,0c-1.8,6.7-3.3,13.2-5.2,19.5c-1.3,4.2-3.1,8.2-4.5,12.3c-0.8,2.3-2.1,3.2-4.4,2.8c-0.3,0-0.7-0.1-1,0c-3.7,0.8-5.4-0.8-6.4-4.5C128.6,219.1,125.4,209.2,122.3,199.1z M74.4,246c-1.2-1.4-2.3-2.8-3.7-4.5c7.1-3.3,7.6-9.4,7.5-16.1c-0.2-11.7,0-23.3,0-34.9c0-1.2,0-2.4,0-3.9c2.7,0,5.1,0,7.8,0c0,0.9,0.1,1.7,0.1,2.6c0,13,0,25.9,0,38.9C86.1,237.6,83.4,241.5,74.4,246z"/></g></g>
</svg>